<svg xmlns="http://www.w3.org/2000/svg" width="1605" height="1605" viewBox="413 434 1605 1605" preserveAspectRatio="xMidYMid meet" version="1.0">
  <defs>
    <clipPath id="1135c48606"><rect x="0" width="1605" y="0" height="1606"/></clipPath>
    <clipPath id="bf2d8d012e"><path d="M 0.417969 0.960938 L 1604.757812 0.960938 L 1604.757812 1605.300781 L 0.417969 1605.300781 Z M 0.417969 0.960938 " clip-rule="nonzero"/></clipPath>
    <clipPath id="2ea55533e0"><rect x="0" width="1239" y="0" height="1859"/></clipPath>
  </defs>

  <!-- Purple square background (original element) -->
  <g transform="translate(413,434)">
    <g clip-path="url(#1135c48606)">
      <g clip-path="url(#bf2d8d012e)">
        <path fill="#4e2780" d="M 0.417969 0.960938 L 1604.757812 0.960938 L 1604.757812 1605.300781 L 0.417969 1605.300781 Z M 0.417969 0.960938 " fill-opacity="1" fill-rule="nonzero"/>
      </g>
    </g>
  </g>

  <!-- White foreground shapes (kept as in original) -->
  <g transform="matrix(1, 0, 0, 1, 729, 504)">
    <g clip-path="url(#2ea55533e0)">
      <g fill="#ffffff" fill-opacity="1">
        <g transform="translate(1.415782, 1393.700581)">
          <g>
            <path d="M 766.671875 -608.875 L 766.671875 -564.328125 L 449.234375 -564.328125 L 449.234375 0 L 42.703125 0 L 42.703125 -868.765625 C 42.703125 -975.203125 59.097656 -1057.8125 91.890625 -1116.59375 C 124.679688 -1175.375 167.6875 -1216.210938 220.90625 -1239.109375 C 274.125 -1262.003906 331.050781 -1273.453125 391.6875 -1273.453125 C 449.851562 -1273.453125 500.898438 -1266.023438 544.828125 -1251.171875 C 588.765625 -1236.328125 629.296875 -1219.003906 666.421875 -1199.203125 C 703.554688 -1179.398438 740.375 -1162.070312 776.875 -1147.21875 C 813.382812 -1132.363281 853.296875 -1124.9375 896.609375 -1124.9375 C 937.453125 -1124.9375 967.15625 -1137.003906 985.71875 -1161.140625 C 1004.28125 -1185.273438 1013.5625 -1217.757812 1013.5625 -1258.59375 L 1054.40625 -1258.59375 C 1061.832031 -1207.851562 1061.519531 -1155.566406 1053.46875 -1101.734375 C 1045.425781 -1047.898438 1029.648438 -998.085938 1006.140625 -952.296875 C 982.628906 -906.515625 950.144531 -869.390625 908.6875 -840.921875 C 867.226562 -812.460938 816.175781 -798.234375 755.53125 -798.234375 C 683.75 -798.234375 621.25 -809.675781 568.03125 -832.5625 C 514.820312 -855.457031 467.175781 -881.445312 425.09375 -910.53125 C 383.019531 -939.613281 343.109375 -965.601562 305.359375 -988.5 C 267.617188 -1011.394531 228.328125 -1022.84375 187.484375 -1022.84375 C 149.117188 -1022.84375 123.75 -1012.015625 111.375 -990.359375 C 99 -968.703125 94.671875 -945.5 98.390625 -920.75 C 102.097656 -897.226562 115.398438 -878.039062 138.296875 -863.1875 C 161.191406 -848.34375 188.726562 -834.421875 220.90625 -821.421875 C 253.082031 -808.429688 285.566406 -793.582031 318.359375 -776.875 C 351.160156 -760.164062 379.625 -738.507812 403.75 -711.90625 C 427.882812 -685.300781 442.425781 -650.957031 447.375 -608.875 Z M 766.671875 -608.875 "/>
          </g>
        </g>
      </g>
    </g>
  </g>
</svg>
