<?xml version="1.0" standalone="no"?>
<!DOCTYPE svg PUBLIC "-//W3C//DTD SVG 20010904//EN"
 "http://www.w3.org/TR/2001/REC-SVG-20010904/DTD/svg10.dtd">
<svg version="1.0" xmlns="http://www.w3.org/2000/svg"
 width="32.000000pt" height="32.000000pt" viewBox="0 0 32.000000 32.000000"
 preserveAspectRatio="xMidYMid meet">
  <rect width="100%" height="100%" fill="#FFFFFF"/>
  <g transform="translate(0.000000,32.000000) scale(0.100000,-0.100000)"
  fill="#6B46C1" stroke="none">
    <path d="M12 308 c-17 -17 -17 -279 0 -296 17 -17 279 -17 296 0 17 17 17 279
    0 296 -17 17 -279 17 -296 0z m241 -44 c15 -16 -8 -34 -43 -34 -25 0 -40 -5
    -44 -16 -11 -27 -7 -34 20 -34 35 0 26 -23 -11 -30 -24 -4 -30 -12 -39 -50 -8
    -31 -17 -46 -30 -48 -17 -4 -18 1 -14 47 4 41 2 51 -10 51 -10 0 -6 8 12 25
    25 23 35 55 17 55 -5 0 -14 -7 -21 -15 -8 -10 -17 -12 -23 -6 -26 26 44 60
    124 61 31 0 58 -3 62 -6z"/>
  </g>
</svg>
